<?xml version="1.0" encoding="UTF-8"?>
<!DOCTYPE svg PUBLIC "-//W3C//DTD SVG 1.1//EN" "http://www.w3.org/Graphics/SVG/1.1/DTD/svg11.dtd">
<svg xmlns="http://www.w3.org/2000/svg" version="1.1" width="32px" height="32px" style="shape-rendering:geometricPrecision; text-rendering:geometricPrecision; image-rendering:optimizeQuality; fill-rule:evenodd; clip-rule:evenodd" xmlns:xlink="http://www.w3.org/1999/xlink">
<g><path style="opacity:0.969" fill="#2f9fee" d="M 9.5,-0.5 C 13.5,-0.5 17.5,-0.5 21.5,-0.5C 25.8333,1.83333 29.1667,5.16667 31.5,9.5C 31.5,13.5 31.5,17.5 31.5,21.5C 30.2109,24.3915 28.2109,26.7248 25.5,28.5C 24.8843,27.7978 24.8843,26.7978 25.5,25.5C 28.1827,24.3305 29.3494,22.3305 29,19.5C 27.9805,20.6872 26.8139,21.6872 25.5,22.5C 25.1667,21.8333 24.8333,21.1667 24.5,20.5C 25.3619,16.5474 25.6952,12.5474 25.5,8.5C 23.2075,8.24358 21.0408,8.57692 19,9.5C 16.2402,4.501 12.9069,4.16767 9,8.5C 8.51722,7.55198 8.35055,6.55198 8.5,5.5C 6.5,5.5 4.5,5.5 2.5,5.5C 4.2752,2.78913 6.60854,0.789131 9.5,-0.5 Z"/></g>
<g><path style="opacity:0.993" fill="#f2f9fd" d="M 2.5,5.5 C 4.5,5.5 6.5,5.5 8.5,5.5C 8.35055,6.55198 8.51722,7.55198 9,8.5C 12.9069,4.16767 16.2402,4.501 19,9.5C 21.0408,8.57692 23.2075,8.24358 25.5,8.5C 25.6952,12.5474 25.3619,16.5474 24.5,20.5C 24.8333,21.1667 25.1667,21.8333 25.5,22.5C 26.8139,21.6872 27.9805,20.6872 29,19.5C 29.3494,22.3305 28.1827,24.3305 25.5,25.5C 23.8561,25.7135 22.3561,25.3802 21,24.5C 20.5558,21.0432 21.0558,17.7099 22.5,14.5C 22.1667,13.5 21.8333,12.5 21.5,11.5C 17.5002,14.8414 15.6669,19.1747 16,24.5C 14.9887,25.3366 13.8221,25.67 12.5,25.5C 12.864,20.7091 13.864,16.0425 15.5,11.5C 15.5472,9.99962 14.8805,8.99962 13.5,8.5C 8.74125,13.1051 6.74125,18.7718 7.5,25.5C 6.16667,25.5 4.83333,25.5 3.5,25.5C 3.64705,19.7669 4.31372,14.1002 5.5,8.5C 3.63998,9.07145 1.97331,9.07145 0.5,8.5C 0.932053,7.29049 1.59872,6.29049 2.5,5.5 Z"/></g>
<g><path style="opacity:0.982" fill="#30a0ee" d="M 0.5,8.5 C 1.97331,9.07145 3.63998,9.07145 5.5,8.5C 4.31372,14.1002 3.64705,19.7669 3.5,25.5C 4.83333,25.5 6.16667,25.5 7.5,25.5C 6.74125,18.7718 8.74125,13.1051 13.5,8.5C 14.8805,8.99962 15.5472,9.99962 15.5,11.5C 13.864,16.0425 12.864,20.7091 12.5,25.5C 13.8221,25.67 14.9887,25.3366 16,24.5C 15.6669,19.1747 17.5002,14.8414 21.5,11.5C 21.8333,12.5 22.1667,13.5 22.5,14.5C 21.0558,17.7099 20.5558,21.0432 21,24.5C 22.3561,25.3802 23.8561,25.7135 25.5,25.5C 24.8843,26.7978 24.8843,27.7978 25.5,28.5C 24.1667,29.5 22.8333,30.5 21.5,31.5C 17.5,31.5 13.5,31.5 9.5,31.5C 5.16667,29.1667 1.83333,25.8333 -0.5,21.5C -0.5,17.5 -0.5,13.5 -0.5,9.5C 0.166667,9.5 0.5,9.16667 0.5,8.5 Z"/></g>
</svg>
